<svg width="211" height="49" viewBox="0 0 211 49" fill="none" xmlns="http://www.w3.org/2000/svg">
<rect width="211" height="49" rx="5" fill="#1A75E8"/>
<path d="M44.8247 30.9417L41.0971 27.2141C42.1129 25.9718 42.6124 24.3865 42.4921 22.7862C42.3719 21.186 41.6412 19.6931 40.4512 18.6165C39.2611 17.5399 37.7028 16.9618 36.0985 17.002C34.4942 17.0421 32.9668 17.6973 31.832 18.832C30.6973 19.9668 30.0421 21.4942 30.002 23.0985C29.9618 24.7028 30.5399 26.2611 31.6165 27.4512C32.6931 28.6412 34.186 29.3719 35.7862 29.4921C37.3865 29.6124 38.9718 29.1129 40.2141 28.0971L43.9417 31.8247C44.0595 31.9385 44.2172 32.0014 44.3809 32C44.5447 31.9986 44.7013 31.9329 44.8171 31.8171C44.9329 31.7013 44.9986 31.5447 45 31.3809C45.0014 31.2172 44.9385 31.0595 44.8247 30.9417ZM36.2649 28.2608C35.2768 28.2608 34.3109 27.9677 33.4893 27.4188C32.6677 26.8698 32.0274 26.0896 31.6493 25.1767C31.2711 24.2638 31.1722 23.2593 31.365 22.2902C31.5577 21.3211 32.0335 20.4309 32.7322 19.7322C33.4309 19.0335 34.3211 18.5577 35.2902 18.365C36.2593 18.1722 37.2638 18.2711 38.1767 18.6493C39.0896 19.0274 39.8698 19.6677 40.4188 20.4893C40.9677 21.3109 41.2608 22.2768 41.2608 23.2649C41.2593 24.5894 40.7324 25.8593 39.7958 26.7958C38.8593 27.7324 37.5894 28.2593 36.2649 28.2608Z" fill="white"/>
<path d="M64.328 30H62.808V24.624C62.808 23.376 62.8773 22.0587 63.016 20.672L58.552 30H56.6V18.976H58.12V24.352C58.12 25.8453 58.0507 27.1787 57.912 28.352L62.424 18.976H64.328V30ZM70.5139 21.376C71.0152 21.376 71.4739 21.4507 71.8899 21.6C72.3059 21.7387 72.7059 21.968 73.0899 22.288L72.3859 23.216C72.0872 23.0027 71.7939 22.848 71.5059 22.752C71.2285 22.6453 70.9192 22.592 70.5779 22.592C69.8952 22.592 69.3619 22.864 68.9779 23.408C68.6045 23.952 68.4179 24.7573 68.4179 25.824C68.4179 26.8907 68.6045 27.68 68.9779 28.192C69.3512 28.6933 69.8845 28.944 70.5779 28.944C70.9085 28.944 71.2125 28.896 71.4899 28.8C71.7672 28.6933 72.0765 28.528 72.4179 28.304L73.0899 29.264C72.3219 29.8827 71.4632 30.192 70.5139 30.192C69.3725 30.192 68.4712 29.808 67.8099 29.04C67.1592 28.272 66.8339 27.2107 66.8339 25.856C66.8339 24.96 66.9832 24.176 67.2819 23.504C67.5805 22.832 68.0019 22.3093 68.5459 21.936C69.1005 21.5627 69.7565 21.376 70.5139 21.376ZM81.4025 21.568L78.8425 25.472L81.7065 30H79.9625L77.6265 26.112H76.5545V30H75.0825V21.568H76.5545V24.96H77.6585L79.7865 21.568H81.4025ZM88.825 28.032C88.825 28.3733 88.8837 28.6293 89.001 28.8C89.1183 28.96 89.2943 29.0827 89.529 29.168L89.193 30.192C88.7557 30.1387 88.4037 30.016 88.137 29.824C87.8703 29.632 87.673 29.3333 87.545 28.928C86.9797 29.7707 86.1423 30.192 85.033 30.192C84.201 30.192 83.545 29.9573 83.065 29.488C82.585 29.0187 82.345 28.4053 82.345 27.648C82.345 26.752 82.665 26.064 83.305 25.584C83.9557 25.104 84.873 24.864 86.057 24.864H87.353V24.24C87.353 23.6427 87.209 23.216 86.921 22.96C86.633 22.704 86.1903 22.576 85.593 22.576C84.9743 22.576 84.217 22.7253 83.321 23.024L82.953 21.952C83.9983 21.568 84.969 21.376 85.865 21.376C86.857 21.376 87.5983 21.6213 88.089 22.112C88.5797 22.592 88.825 23.28 88.825 24.176V28.032ZM85.369 29.088C86.2117 29.088 86.873 28.6507 87.353 27.776V25.84H86.249C84.6917 25.84 83.913 26.416 83.913 27.568C83.913 28.0693 84.0357 28.448 84.281 28.704C84.5263 28.96 84.889 29.088 85.369 29.088ZM97.2316 21.568L97.0556 22.768H94.3516V30H92.8796V22.768H90.0956V21.568H97.2316ZM101.346 24.288C102.605 24.288 103.517 24.5333 104.082 25.024C104.648 25.5147 104.93 26.2133 104.93 27.12C104.93 28.0693 104.61 28.7893 103.97 29.28C103.341 29.76 102.557 30 101.618 30H98.7544V21.568H100.226V24.288H101.346ZM101.49 28.848C102.088 28.848 102.546 28.7147 102.866 28.448C103.197 28.1813 103.362 27.7387 103.362 27.12C103.362 26.5333 103.208 26.1013 102.898 25.824C102.6 25.5467 102.077 25.408 101.33 25.408H100.226V28.848H101.49ZM115.687 25.424C117.116 25.5627 117.831 26.224 117.831 27.408C117.831 28.2933 117.505 28.9493 116.855 29.376C116.215 29.792 115.356 30 114.279 30H111.239V21.68C112.231 21.4773 113.153 21.376 114.007 21.376C115.052 21.376 115.879 21.5733 116.487 21.968C117.095 22.3627 117.399 22.928 117.399 23.664C117.399 24.144 117.255 24.5333 116.967 24.832C116.679 25.1307 116.252 25.328 115.687 25.424ZM114.023 22.512C113.575 22.512 113.137 22.544 112.711 22.608V24.992H114.295C114.807 24.992 115.201 24.896 115.479 24.704C115.756 24.512 115.895 24.1867 115.895 23.728C115.895 23.3013 115.74 22.992 115.431 22.8C115.121 22.608 114.652 22.512 114.023 22.512ZM114.279 28.848C114.908 28.848 115.399 28.7413 115.751 28.528C116.103 28.3147 116.279 27.9307 116.279 27.376C116.279 26.9173 116.129 26.5867 115.831 26.384C115.532 26.1813 115.025 26.08 114.311 26.08H112.711V28.848H114.279ZM125.794 28.032C125.794 28.3733 125.852 28.6293 125.97 28.8C126.087 28.96 126.263 29.0827 126.498 29.168L126.162 30.192C125.724 30.1387 125.372 30.016 125.106 29.824C124.839 29.632 124.642 29.3333 124.514 28.928C123.948 29.7707 123.111 30.192 122.002 30.192C121.17 30.192 120.514 29.9573 120.034 29.488C119.554 29.0187 119.314 28.4053 119.314 27.648C119.314 26.752 119.634 26.064 120.274 25.584C120.924 25.104 121.842 24.864 123.026 24.864H124.322V24.24C124.322 23.6427 124.178 23.216 123.89 22.96C123.602 22.704 123.159 22.576 122.562 22.576C121.943 22.576 121.186 22.7253 120.29 23.024L119.922 21.952C120.967 21.568 121.938 21.376 122.834 21.376C123.826 21.376 124.567 21.6213 125.058 22.112C125.548 22.592 125.794 23.28 125.794 24.176V28.032ZM122.338 29.088C123.18 29.088 123.842 28.6507 124.322 27.776V25.84H123.218C121.66 25.84 120.882 26.416 120.882 27.568C120.882 28.0693 121.004 28.448 121.25 28.704C121.495 28.96 121.858 29.088 122.338 29.088ZM135.137 21.568L132.577 25.472L135.441 30H133.697L131.361 26.112H130.289V30H128.817V21.568H130.289V24.96H131.393L133.521 21.568H135.137ZM142.559 28.032C142.559 28.3733 142.618 28.6293 142.735 28.8C142.853 28.96 143.029 29.0827 143.263 29.168L142.927 30.192C142.49 30.1387 142.138 30.016 141.871 29.824C141.605 29.632 141.407 29.3333 141.279 28.928C140.714 29.7707 139.877 30.192 138.767 30.192C137.935 30.192 137.279 29.9573 136.799 29.488C136.319 29.0187 136.079 28.4053 136.079 27.648C136.079 26.752 136.399 26.064 137.039 25.584C137.69 25.104 138.607 24.864 139.791 24.864H141.087V24.24C141.087 23.6427 140.943 23.216 140.655 22.96C140.367 22.704 139.925 22.576 139.327 22.576C138.709 22.576 137.951 22.7253 137.055 23.024L136.687 21.952C137.733 21.568 138.703 21.376 139.599 21.376C140.591 21.376 141.333 21.6213 141.823 22.112C142.314 22.592 142.559 23.28 142.559 24.176V28.032ZM139.103 29.088C139.946 29.088 140.607 28.6507 141.087 27.776V25.84H139.983C138.426 25.84 137.647 26.416 137.647 27.568C137.647 28.0693 137.77 28.448 138.015 28.704C138.261 28.96 138.623 29.088 139.103 29.088ZM150.559 30V26.288H147.055V30H145.583V21.568H147.055V25.104H150.559V21.568H152.031V30H150.559ZM158.139 21.376C158.64 21.376 159.099 21.4507 159.515 21.6C159.931 21.7387 160.331 21.968 160.715 22.288L160.011 23.216C159.712 23.0027 159.419 22.848 159.131 22.752C158.854 22.6453 158.544 22.592 158.203 22.592C157.52 22.592 156.987 22.864 156.603 23.408C156.23 23.952 156.043 24.7573 156.043 25.824C156.043 26.8907 156.23 27.68 156.603 28.192C156.976 28.6933 157.51 28.944 158.203 28.944C158.534 28.944 158.838 28.896 159.115 28.8C159.392 28.6933 159.702 28.528 160.043 28.304L160.715 29.264C159.947 29.8827 159.088 30.192 158.139 30.192C156.998 30.192 156.096 29.808 155.435 29.04C154.784 28.272 154.459 27.2107 154.459 25.856C154.459 24.96 154.608 24.176 154.907 23.504C155.206 22.832 155.627 22.3093 156.171 21.936C156.726 21.5627 157.382 21.376 158.139 21.376ZM169.267 30H167.812V26.192C167.812 25.552 167.833 24.944 167.876 24.368C167.918 23.792 167.956 23.4133 167.988 23.232L164.452 30H162.708V21.568H164.164V25.376C164.164 25.9413 164.142 26.528 164.1 27.136C164.057 27.7333 164.025 28.1173 164.004 28.288L167.492 21.568H169.267V30ZM178.861 30H177.405V26.192C177.405 25.552 177.427 24.944 177.469 24.368C177.512 23.792 177.549 23.4133 177.581 23.232L174.045 30H172.301V21.568H173.757V25.376C173.757 25.9413 173.736 26.528 173.693 27.136C173.651 27.7333 173.619 28.1173 173.597 28.288L177.085 21.568H178.861V30Z" fill="white"/>
</svg>
